<?xml version="1.0" encoding="utf-8"?>
<!-- Generator: Adobe Illustrator 19.0.0, SVG Export Plug-In . SVG Version: 6.00 Build 0)  -->
<svg version="1.1" id="图层_1" xmlns="http://www.w3.org/2000/svg" xmlns:xlink="http://www.w3.org/1999/xlink" x="0px" y="0px"
	 viewBox="0 0 343.8 95.4" style="enable-background:new 0 0 343.8 95.4;" xml:space="preserve">
<style type="text/css">
	.st0{fill:#FFFFFF;}
</style>
<g>
	<path class="st0" d="M34.6,85.4H5c-2.8,0-5,2.2-5,5s2.2,5,5,5h29.6c2.8,0,5-2.2,5-5S37.3,85.4,34.6,85.4z"/>
	<path class="st0" d="M55.9,65h-6.8c-1,0-1.8,0.7-1.9,1.7l-2.9,26.5c-0.1,0.6,0.1,1.1,0.5,1.5c0.4,0.4,0.9,0.6,1.4,0.6h6.9
		c1,0,1.8-0.7,1.9-1.7l2.8-26.5c0.1-0.6-0.1-1.1-0.5-1.5C56.9,65.2,56.4,65,55.9,65z"/>
	<path class="st0" d="M90.5,5.3L77.3,5.2c-0.6,0-1.1-0.5-1.1-1.1l0-2.1c0-1.1-0.9-1.9-1.9-1.9h-8.8c-1.1,0-1.9,0.9-1.9,1.9l0,2.2
		c0,0.6-0.5,1.1-1.1,1.1L49.1,5.2c-1.4,0-2.6,0.5-3.6,1.5c-1,0.9-1.5,2.2-1.5,3.6c0,2.8,2.2,5.1,5,5.1h41.6c2.9,0,5.3-2.5,5-5.5
		C95.5,7.2,93.1,5.3,90.5,5.3z"/>
	<path class="st0" d="M90.8,65h-6.9c-0.6,0-1.1,0.2-1.4,0.6c-0.4,0.4-0.5,0.9-0.5,1.5l2.4,26.5c0.1,1,0.9,1.8,1.9,1.8h6.8
		c0.5,0,1.1-0.2,1.4-0.6c0.4-0.4,0.6-0.9,0.5-1.5l-2.3-26.5C92.7,65.7,91.8,65,90.8,65z"/>
	<path class="st0" d="M195,86.3h-84.2c-2.5,0-4.5,2-4.5,4.5c0,2.5,2,4.5,4.5,4.5H195c2.5,0,4.5-2,4.5-4.5
		C199.5,88.3,197.5,86.3,195,86.3z"/>
	<path class="st0" d="M5.9,77.8h27.9c2.8,0,5-2.3,5-5V31.9c0-2.8-2.3-5-5-5h0c-0.5,0-0.8-0.4-0.7-0.9l4.6-16.8
		c0.1-0.7,0.1-1.3-0.1-1.9c-0.2-0.6-0.5-1.1-1-1.5c-0.5-0.5-1.1-0.8-1.7-1c-0.7-0.3-1.4-0.4-2.1-0.4H18.2c-0.6,0-1-0.6-0.8-1.1
		l0.2-0.7c0.2-0.6,0-1.2-0.3-1.7C16.9,0.3,16.3,0,15.7,0H7.9C7,0,6.3,0.6,6,1.4L1.2,19.2c-0.2,0.6,0,1.2,0.3,1.7
		c0.4,0.5,0.9,0.8,1.5,0.8l1.9,0c3.7,0,7-2.1,8.8-5.4c1-1.8,2.8-2.9,4.7-2.9c1.6,0,3,0.8,3.8,2.1c0.7,1.1,0.8,2.5,0.5,3.8L20.8,26
		c-0.1,0.5-0.6,0.8-1.1,0.8H5.9c-2.8,0-5,2.3-5,5v40.9C0.9,75.6,3.2,77.8,5.9,77.8z M24,37.6c0-1.6,1.3-2.8,2.8-2.8
		c1.6,0,2.8,1.3,2.8,2.8v8.2c0,1.6-1.3,2.8-2.8,2.8c-1.6,0-2.8-1.3-2.8-2.8V37.6z M24,59c0-1.6,1.3-2.8,2.8-2.8
		c1.6,0,2.8,1.3,2.8,2.8v8c0,1.6-1.3,2.8-2.8,2.8c-1.6,0-2.8-1.3-2.8-2.8V59z M10.1,37.6c0-1.6,1.3-2.8,2.8-2.8
		c1.6,0,2.8,1.3,2.8,2.8v8.2c0,1.6-1.3,2.8-2.8,2.8c-1.6,0-2.8-1.3-2.8-2.8V37.6z M10.1,59c0-1.6,1.3-2.8,2.8-2.8
		c1.6,0,2.8,1.3,2.8,2.8v8c0,1.6-1.3,2.8-2.8,2.8c-1.6,0-2.8-1.3-2.8-2.8V59z"/>
	<path class="st0" d="M329,4.5H224.6c-8.2,0-14.8,7-14.8,15.5v39.9c0,8.6,6.6,15.5,14.8,15.5H329c8.2,0,14.8-7,14.8-15.5V20
		C343.8,11.5,337.2,4.5,329,4.5z M226.3,60.4c-1.3,0-2.4-0.6-3.2-1.6c-0.8-1-1.1-2.3-0.9-3.6l5.2-28.4c0.4-2.1,2.1-3.5,4.1-3.5
		c1.3,0,2.4,0.6,3.2,1.6c0.8,1,1.1,2.3,0.9,3.6l-5.1,28.4C230,58.9,228.3,60.4,226.3,60.4z M251.5,64.5c0,0.6-0.1,1.1-0.4,1.5
		c-0.3,0.4-0.6,0.8-1,1.1c-0.4,0.3-0.9,0.5-1.4,0.7c-0.5,0.2-1,0.2-1.5,0.2h-9.3c-1.9,0-3.4-1.6-3.4-3.5c0-2,1.5-3.5,3.4-3.5h1.5
		c2,0,3.5-1.7,3.5-3.7V16.5c0-2.5,1.9-4.5,4.3-4.5s4.3,2,4.3,4.5V64.5z M271.2,58.8c-0.8,1-2,1.6-3.3,1.6c-2,0-3.7-1.5-4.1-3.5
		l-5.2-28.4c-0.2-1.3,0.1-2.6,0.9-3.6c0.8-1,2-1.6,3.2-1.6c2,0,3.7,1.5,4.1,3.5l5.2,28.4C272.3,56.5,272,57.8,271.2,58.8z M291.7,66
		h-10.7c-1.9,0-3.4-1.6-3.4-3.5c0-2,1.5-3.5,3.4-3.5c0.6,0,1-0.5,1-1.1V43.6c0-0.1-0.1-0.3-0.2-0.3c-1.9,0-3.4-1.6-3.4-3.5
		c0-2,1.5-3.5,3.4-3.5c0.1,0,0.2-0.1,0.2-0.3V21.6c0-0.4-0.3-0.7-0.6-0.7c-1.9,0-3.4-1.6-3.4-3.5s1.5-3.5,3.4-3.5h9.9
		c1.9,0,3.4,1.6,3.4,3.5c0,2-1.5,3.5-3.4,3.5c-0.4,0-0.7,0.4-0.7,0.8v14.1c0,0.2,0.2,0.5,0.4,0.5c1.9,0,3.4,1.6,3.4,3.5
		c0,2-1.5,3.5-3.4,3.5c-0.2,0-0.4,0.2-0.4,0.5v14c0,0.7,0.5,1.2,1.1,1.2c1.9,0,3.4,1.6,3.4,3.5C295.1,64.4,293.5,66,291.7,66z
		 M296.3,52.2v-32c0-1.5,1.2-2.7,2.6-2.7c1.4,0,2.6,1.2,2.6,2.7v32c0,1.5-1.2,2.7-2.6,2.7C297.4,54.9,296.3,53.6,296.3,52.2z
		 M311,64.7c0,1.1-0.3,1.9-1,2.5c-0.7,0.6-1.5,0.8-2.3,0.8h-6.6c-1.9,0-3.5-1.6-3.5-3.6c0-2,1.6-3.6,3.5-3.6c1.2,0,2.3-1.1,2.3-2.4
		V16c0-2.2,1.7-4,3.9-4c2.1,0,3.9,1.8,3.9,4V64.7z M328.1,66.9h-11.9c-1.9,0-3.4-1.6-3.4-3.5c0-2,1.5-3.5,3.4-3.5h0.7
		c0.5,0,1-0.5,1-1V44.6c0-0.6-0.4-1-1-1c-1.9,0-3.4-1.6-3.4-3.5c0-2,1.6-3.5,3.5-3.5c0.5,0,1-0.5,1-1V21.3c0-0.6-0.4-1-1-1h-0.4
		c-1.9,0-3.4-1.6-3.4-3.5c0-2,1.5-3.5,3.4-3.5h11.3c1.9,0,3.4,1.6,3.4,3.5c0,2-1.5,3.5-3.4,3.5h-0.4c-0.5,0-1,0.5-1,1v14.1
		c0,0.6,0.4,1,1,1c1.9,0,3.4,1.6,3.4,3.5c0,2-1.5,3.5-3.4,3.5c-0.5,0-1,0.5-1,1v14.1c0,0.6,0.4,1,1,1h0.7c1.9,0,3.4,1.6,3.4,3.5
		C331.5,65.3,330,66.9,328.1,66.9z"/>
	<path class="st0" d="M86.8,22.3H53c-3.1,0-5.7,2.5-5.7,5.7v24.3c0,3.1,2.5,5.7,5.7,5.7h9.5c0.6,0,1.1,0.5,1.1,1.1l0.1,25
		c0,0.6-0.5,1.1-1.1,1.1h-0.2c-0.5,0-1,0.2-1.3,0.6c-0.3,0.4-0.5,0.9-0.5,1.4l0.5,6.5c0.1,0.9,0.9,1.6,1.8,1.6h8.3
		c0.5,0,1.1-0.1,1.7-0.4c0.6-0.3,1.2-0.7,1.7-1.2c0.5-0.5,0.9-1.2,1.2-1.9c0.3-0.7,0.4-1.4,0.4-2.3l-0.1-30.4c0-0.6,0.5-1.1,1.1-1.1
		h9.4c3.1,0,5.7-2.5,5.7-5.7V28C92.5,24.8,89.9,22.3,86.8,22.3z M79.9,43.4c0,2.5-2,4.5-4.5,4.5H64.4c-2.5,0-4.5-2-4.5-4.5V37
		c0-2.5,2-4.5,4.5-4.5h10.9c2.5,0,4.5,2,4.5,4.5V43.4z"/>
	<path class="st0" d="M189,24.4h-3.2c-0.8,0-1.3-0.7-1.1-1.5l3.5-12l0,0c0.7-2.5-0.6-5.3-3.1-6.2c-0.5-0.2-1-0.3-1.5-0.3h0
		c-2.5,0-45.4,0-50.7,0c-0.9,0-1.4-0.9-1-1.7c0.4-0.7,0.7-1.4,0.7-1.4c0.1-0.1,0.1-0.3,0.1-0.4c0-0.4-0.3-0.8-0.6-0.9v0
		C132,0,131.8,0,131.7,0l0,0l0,0c0,0,0,0,0,0l-12.2,0c-0.7,0-1.3,0.4-1.6,0.9l-8.2,15.9c-0.3,0.5-0.3,1.2,0.1,1.7
		c0.3,0.5,0.9,0.8,1.5,0.8h7.3c2.9,0,5.5-1.6,6.8-4.2c0.5-0.9,1.5-1.5,2.5-1.5l39.8,0c1.3,0,2.7,0.5,3.6,1.5c1.1,1.2,1.4,2.8,1,4.3
		l-1.2,4c-0.1,0.5-0.6,0.8-1.1,0.8h-53.2c-3.6,0-6.5,2.9-6.5,6.5v40.5c0,3.6,2.9,6.5,6.5,6.5H189c3.6,0,6.5-2.9,6.5-6.5V30.9
		C195.5,27.3,192.6,24.4,189,24.4z M146.4,61.8c0,3.3-2.7,6-6,6h-10.8c-3.3,0-6-2.7-6-6c0-3.4,2.7-6.1,6-6.1h10.8
		C143.7,55.6,146.4,58.3,146.4,61.8L146.4,61.8z M140.3,46.5h-10.8c-3.3,0-6-2.7-6-6c0-3.3,2.7-6,6-6h10.8c3.3,0,6,2.7,6,6
		C146.4,43.8,143.7,46.5,140.3,46.5z M182.3,61.8c0,3.3-2.7,6-6,6h-10.8c-3.3,0-6-2.7-6-6c0-3.4,2.7-6.1,6-6.1h10.8
		C179.6,55.6,182.3,58.3,182.3,61.8L182.3,61.8z M176.3,46.5h-10.8c-3.3,0-6-2.7-6-6c0-3.3,2.7-6,6-6h10.8c3.3,0,6,2.7,6,6
		C182.3,43.8,179.6,46.5,176.3,46.5z"/>
	<g>
		<path class="st0" d="M258.3,86.4h2.8c0.6,0,1-0.5,1-1c0-0.6-0.5-1-1-1h-5c-0.7,0-1.3,0.6-1.3,1.3v8.5c0,0.7,0.6,1.3,1.3,1.3h5
			c0.6,0,1-0.5,1-1s-0.5-1-1-1h-2.8c-0.7,0-1.2-0.5-1.2-1.2V92c0-0.7,0.5-1.2,1.2-1.2h2c0.6,0,1-0.5,1-1s-0.5-1-1-1h-2
			c-0.7,0-1.2-0.5-1.2-1.2C257.1,86.9,257.6,86.4,258.3,86.4z"/>
		<path class="st0" d="M282,86.4h2.8c0.6,0,1-0.5,1-1c0-0.6-0.5-1-1-1h-5c-0.7,0-1.3,0.6-1.3,1.3v8.5c0,0.7,0.6,1.3,1.3,1.3h5
			c0.6,0,1-0.5,1-1s-0.5-1-1-1H282c-0.7,0-1.2-0.5-1.2-1.2V92c0-0.7,0.5-1.2,1.2-1.2h2c0.6,0,1-0.5,1-1s-0.5-1-1-1h-2
			c-0.7,0-1.2-0.5-1.2-1.2C280.8,86.9,281.3,86.4,282,86.4z"/>
		<path class="st0" d="M240.9,85.2c-0.2-0.5-0.7-0.9-1.2-0.9s-1.1,0.3-1.2,0.9l-3.2,8.7c-0.1,0.4-0.1,0.7,0.1,1
			c0.2,0.3,0.6,0.5,0.9,0.5c0.5,0,0.9-0.3,1.1-0.8c0.2-0.6,0.7-0.9,1.3-0.9h2c0.6,0,1.1,0.4,1.3,0.9c0.1,0.5,0.6,0.8,1.1,0.8
			c0.4,0,0.7-0.2,0.9-0.5c0.2-0.3,0.3-0.7,0.1-1L240.9,85.2z M240.7,91.5c-0.1,0.1-0.3,0.2-0.5,0.2h-1.1c-0.2,0-0.4-0.1-0.5-0.2
			c-0.1-0.1-0.1-0.3-0.1-0.5l0.7-2.2c0.1-0.2,0.2-0.3,0.4-0.3h0c0.2,0,0.3,0.1,0.4,0.3l0.7,2.2C240.8,91.2,240.8,91.4,240.7,91.5z"
			/>
		<path class="st0" d="M221.5,84.3c-0.6,0-1.2,0.5-1.2,1.2V89c0,0.2-0.1,0.3-0.3,0.4c-0.2,0-0.4,0-0.4-0.2l-0.9-1.6
			c-0.2-0.4-0.7-0.7-1.2-0.7c-0.5,0-0.9,0.3-1.1,0.7l-0.9,1.6c-0.1,0.1-0.2,0.2-0.3,0.2c0,0-0.1,0-0.1,0c-0.2,0-0.3-0.2-0.3-0.4
			v-3.5c0-0.6-0.5-1.2-1.2-1.2c-0.6,0-1.2,0.5-1.2,1.2v8.4c0,0.8,0.7,1.5,1.5,1.5c0.6,0,1.1-0.3,1.3-0.8l1.2-2.3
			c0.2-0.4,0.7-0.7,1.2-0.7h0c0.5,0,0.9,0.3,1.2,0.7l1.2,2.3c0.3,0.5,0.8,0.8,1.3,0.8c0.8,0,1.5-0.7,1.5-1.5v-8.4
			C222.6,84.8,222.1,84.3,221.5,84.3z"/>
		<path class="st0" d="M251.9,93.3h-2c-1,0-1.8-0.8-1.8-1.8v-6.1c0-0.7-0.5-1.2-1.2-1.2c-0.6,0-1.2,0.5-1.2,1.2v8.6
			c0,0.7,0.6,1.3,1.3,1.3h4.9c0.6,0,1-0.5,1-1S252.5,93.3,251.9,93.3z"/>
		<path class="st0" d="M315.7,93.3h-2c-1,0-1.8-0.8-1.8-1.8v-6.1c0-0.6-0.5-1.2-1.2-1.2c-0.6,0-1.2,0.5-1.2,1.2v8.6
			c0,0.7,0.6,1.3,1.3,1.3h4.9c0.6,0,1-0.5,1-1S316.2,93.3,315.7,93.3z"/>
		<path class="st0" d="M269.1,88.8L269.1,88.8l-1.4-0.2c-0.5-0.1-0.8-0.3-0.9-0.4c-0.3-0.3-0.3-0.5-0.3-0.7c0-0.6,0.5-1.3,1.6-1.3
			h0.1c0.4,0,0.9,0,1.5,0.2c0.4,0.2,0.9,0.1,1.1-0.2l0,0c0.2-0.2,0.3-0.6,0.3-0.9c-0.1-0.3-0.3-0.6-0.5-0.7
			c-0.7-0.3-1.4-0.4-2.4-0.4c-2.4,0-4,1.3-4,3.3c0,0.9,0.2,1.6,0.7,2.1c0.5,0.5,1.2,0.8,2.2,0.9l1.4,0.2c0.4,0.1,0.7,0.2,0.9,0.4
			c0.2,0.2,0.3,0.5,0.3,0.8c0,0.5-0.2,1.3-1.9,1.3c-0.5,0-1.3-0.1-2-0.4c-0.1-0.1-0.3-0.1-0.4-0.1c-0.3,0-0.5,0.1-0.7,0.3
			c-0.3,0.2-0.4,0.6-0.3,0.9c0.1,0.3,0.3,0.6,0.6,0.7c0.7,0.3,1.6,0.5,2.8,0.5c2.1,0,4.2-1,4.2-3.3c0-1-0.3-1.8-0.8-2.3
			C270.8,89.3,270.1,89,269.1,88.8z"/>
		<path class="st0" d="M232,84.3c-0.7,0-1.2,0.5-1.2,1.2v2.4c0,0.4-0.3,0.7-0.7,0.7h-2c-0.4,0-0.7-0.3-0.7-0.7l0-2.4
			c0-0.7-0.5-1.2-1.2-1.2c-0.7,0-1.2,0.5-1.2,1.2v8.7c0,0.7,0.5,1.2,1.2,1.2c0.7,0,1.2-0.5,1.2-1.2l0-2.5c0-0.4,0.3-0.7,0.7-0.7h2
			c0.4,0,0.7,0.3,0.7,0.7v2.5c0,0.7,0.5,1.2,1.2,1.2c0.7,0,1.2-0.5,1.2-1.2v-8.7C233.1,84.8,232.6,84.3,232,84.3z"/>
		<path class="st0" d="M340,84.3c-0.7,0-1.2,0.5-1.2,1.2v2.4c0,0.4-0.3,0.7-0.7,0.7h-2c-0.4,0-0.7-0.3-0.7-0.7l0-2.4
			c0-0.7-0.5-1.2-1.2-1.2c-0.7,0-1.2,0.5-1.2,1.2v8.7c0,0.7,0.5,1.2,1.2,1.2c0.7,0,1.2-0.5,1.2-1.2l0-2.5c0-0.4,0.3-0.7,0.7-0.7h2
			c0.4,0,0.7,0.3,0.7,0.7v2.5c0,0.7,0.5,1.2,1.2,1.2c0.7,0,1.2-0.5,1.2-1.2v-8.7C341.2,84.8,340.7,84.3,340,84.3z"/>
		<path class="st0" d="M328,88.8L328,88.8l-1.4-0.2c-0.5-0.1-0.8-0.3-0.9-0.4c-0.3-0.3-0.3-0.5-0.3-0.7c0-0.6,0.5-1.3,1.6-1.3h0.1
			c0.4,0,0.9,0,1.5,0.2c0.4,0.2,0.9,0.1,1.1-0.2l0,0c0.2-0.2,0.3-0.6,0.3-0.9c-0.1-0.3-0.3-0.6-0.5-0.7c-0.7-0.3-1.4-0.4-2.4-0.4
			c-2.4,0-4,1.3-4,3.3c0,0.9,0.2,1.6,0.7,2.1c0.5,0.5,1.2,0.8,2.2,0.9l1.4,0.2c0.4,0.1,0.7,0.2,0.9,0.4c0.2,0.2,0.3,0.5,0.3,0.8
			c0,0.5-0.2,1.3-1.9,1.3c-0.5,0-1.3-0.1-2-0.4c-0.1-0.1-0.3-0.1-0.4-0.1c-0.3,0-0.5,0.1-0.7,0.3c-0.3,0.2-0.4,0.6-0.3,0.9
			c0.1,0.3,0.3,0.6,0.6,0.7c0.7,0.3,1.6,0.5,2.8,0.5c2.1,0,4.2-1,4.2-3.3c0-1-0.3-1.8-0.8-2.3C329.6,89.3,328.9,89,328,88.8z"/>
		<path class="st0" d="M319.6,84.3c-0.6,0-1.2,0.5-1.2,1.2v8.7c0,0.6,0.5,1.2,1.2,1.2s1.2-0.5,1.2-1.2v-8.7
			C320.7,84.9,320.2,84.3,319.6,84.3z"/>
		<path class="st0" d="M296.1,84.3c-0.6,0-1.2,0.5-1.2,1.2v4.1c0,0.4-0.5,0.6-0.8,0.3l-4.1-5.1l0,0c-0.2-0.2-0.5-0.4-0.9-0.4
			c-0.6,0-1.2,0.5-1.2,1.2v8.7c0,0.6,0.5,1.2,1.2,1.2s1.2-0.5,1.2-1.2v-4.1c0-0.4,0.5-0.6,0.8-0.3l4,5.1l0,0
			c0.2,0.3,0.5,0.4,0.9,0.4c0.6,0,1.2-0.5,1.2-1.2v-8.7C297.2,84.9,296.7,84.3,296.1,84.3z"/>
		<path class="st0" d="M306,89.2h-1.2c-0.6,0-1.2,0.5-1.2,1.2c0,0.6,0.4,1.1,1,1.2c0,0,0.1,0,0.1,0.1v1c0,0.1-0.1,0.2-0.2,0.3
			c-0.3,0.2-0.6,0.3-1,0.3c-0.5,0-1-0.2-1.3-0.6c-0.3-0.4-0.5-0.8-0.5-3c0-2.2,0.2-2.4,0.5-2.8c0.3-0.4,0.8-0.6,1.3-0.6
			c0.6,0,1.1,0.2,1.4,0.7c0.2,0.3,0.6,0.5,1,0.5c0.4,0,0.8-0.2,1-0.6c0.2-0.4,0.2-0.8-0.1-1.1c-0.7-1-1.9-1.5-3.3-1.5
			c-1.2,0-2.2,0.4-3,1.2c-1.1,1.1-1.1,2.3-1.1,4v0.4c0,1.7,0,3.1,1.1,4.2c0.8,0.8,1.8,1.2,3,1.2c1.4,0,2.6-0.5,3.3-1.5
			c0.1-0.2,0.2-0.4,0.2-0.6l0-1.6h0v-1.2C307.2,89.8,306.7,89.2,306,89.2z"/>
	</g>
</g>
</svg>
